<?xml version="1.0" ?><svg viewBox="0 0 64 64" xmlns="http://www.w3.org/2000/svg" xmlns:xlink="http://www.w3.org/1999/xlink"><defs><linearGradient gradientUnits="userSpaceOnUse" id="gradient_ice" x1="-9.261" x2="51.739" y1="17.063" y2="79.063"><stop offset="0" stop-color="#fff200"/><stop offset="1" stop-color="#cd118c"/></linearGradient><linearGradient id="gradient_ice-2" x1="-8.175" x2="52.825" xlink:href="#gradient_ice" y1="15.995" y2="77.995"/><linearGradient id="gradient_ice-3" x1="1.988" x2="62.988" xlink:href="#gradient_ice" y1="5.996" y2="67.996"/><linearGradient id="gradient_ice-4" x1="12.15" x2="73.15" xlink:href="#gradient_ice" y1="-4.003" y2="57.997"/><linearGradient id="gradient_ice-5" x1="13.236" x2="74.236" xlink:href="#gradient_ice" y1="-5.071" y2="56.929"/></defs><g id="bank-financial-business-finance"><path d="M2,62H62V56H2Zm2-4H60v2H4Z" style="fill:url(#gradient_ice)"/><path d="M3,49v6H21V49H18V24h3V18H3v6H6V49Zm16,2v2H5V51ZM5,22V20H19v2Zm3,2h8V49H8Z" style="fill:url(#gradient_ice-2)"/><path d="M23,49v6H41V49H38V24h3V18H23v6h3V49Zm16,2v2H25V51ZM25,22V20H39v2Zm3,2h8V49H28Z" style="fill:url(#gradient_ice-3)"/><path d="M43,49v6H61V49H58V24h3V18H43v6h3V49Zm16,2v2H45V51ZM45,22V20H59v2Zm3,2h8V49H48Z" style="fill:url(#gradient_ice-4)"/><path d="M56.181,11,32,1.932,7.819,11H2v6H62V11ZM60,15H4V13H8.181L32,4.068,55.819,13H60Z" style="fill:url(#gradient_ice-5)"/></g></svg>