<svg width="42" height="42" viewBox="0 0 42 42" fill="none" xmlns="http://www.w3.org/2000/svg">
<path d="M40.075 1.75H31.5C31.5 0.7 30.8 0 29.75 0C28.7 0 28 0.7 28 1.75H14C14 0.7 13.3 0 12.25 0C11.2 0 10.5 0.7 10.5 1.75H1.925C0.875 1.75 0 2.625 0 3.675V40.075C0 41.125 0.875 42 1.925 42H40.075C41.125 42 42 41.125 42 40.075V3.675C42 2.625 41.125 1.75 40.075 1.75ZM3.5 14H7V17.5H3.5V14ZM33.25 17.5H29.75V14H33.25V17.5ZM19.25 24.5H22.75V28H19.25V24.5ZM17.5 28H14V24.5H17.5V28ZM24.5 24.5H28V28H24.5V24.5ZM24.5 22.75V19.25H28V22.75H24.5ZM22.75 22.75H19.25V19.25H22.75V22.75ZM17.5 22.75H14V19.25H17.5V22.75ZM12.25 22.75H8.75V19.25H12.25V22.75ZM12.25 24.5V28H8.75V24.5H12.25ZM12.25 29.75V33.25H8.75V29.75H12.25ZM14 29.75H17.5V33.25H14V29.75ZM19.25 29.75H22.75V33.25H19.25V29.75ZM24.5 29.75H28V33.25H24.5V29.75ZM29.75 29.75H33.25V33.25H29.75V29.75ZM29.75 28V24.5H33.25V28H29.75ZM29.75 22.75V19.25H33.25V22.75H29.75ZM28 17.5H24.5V14H28V17.5ZM22.75 17.5H19.25V14H22.75V17.5ZM17.5 17.5H14V14H17.5V17.5ZM12.25 17.5H8.75V14H12.25V17.5ZM3.5 19.25H7V22.75H3.5V19.25ZM3.5 24.5H7V28H3.5V24.5ZM3.5 29.75H7V33.25H3.5V29.75ZM3.5 38.5V35H7V38.5H3.5ZM8.75 38.5V35H12.25V38.5H8.75ZM14 38.5V35H17.5V38.5H14ZM19.25 38.5V35H22.75V38.5H19.25ZM24.5 38.5V35H28V38.5H24.5ZM29.75 38.5V35H33.25V38.5H29.75ZM38.5 38.5H35V35H38.5V38.5ZM38.5 33.25H35V29.75H38.5V33.25ZM38.5 28H35V24.5H38.5V28ZM38.5 22.75H35V19.25H38.5V22.75ZM38.5 17.5H35V14H38.5V17.5ZM38.5 12.25H3.5V5.25H10.5V7C10.5 8.05 11.2 8.75 12.25 8.75C13.3 8.75 14 8.05 14 7V5.25H28V7C28 8.05 28.7 8.75 29.75 8.75C30.8 8.75 31.5 8.05 31.5 7V5.25H38.5V12.25Z" fill="#BB97B3"/>
</svg>
