<svg width="42" height="42" viewBox="0 0 42 42" fill="none" xmlns="http://www.w3.org/2000/svg">
<path d="M40.075 1.75H31.5C31.5 0.7 30.8 0 29.75 0C28.7 0 28 0.7 28 1.75H14C14 0.7 13.3 0 12.25 0C11.2 0 10.5 0.7 10.5 1.75H1.925C0.875 1.75 0 2.625 0 3.675V40.075C0 41.125 0.875 42 1.925 42H40.075C41.125 42 42 41.125 42 40.075V3.675C42 2.625 41.125 1.75 40.075 1.75ZM38.5 38.5H3.5V14H38.5V38.5ZM38.5 12.25H3.5V5.25H10.5V7C10.5 8.05 11.2 8.75 12.25 8.75C13.3 8.75 14 8.05 14 7V5.25H28V7C28 8.05 28.7 8.75 29.75 8.75C30.8 8.75 31.5 8.05 31.5 7V5.25H38.5V12.25Z" fill="#10DC0B"/>
<path d="M18.025 30.975C18.725 31.675 19.775 31.675 20.475 30.975L27.65 23.8C28.35 23.1 28.35 22.05 27.65 21.35C26.95 20.65 25.9 20.65 25.2 21.35L19.25 27.475L16.8 25.025C16.1 24.325 15.05 24.325 14.35 25.025C13.65 25.725 13.65 26.775 14.35 27.475L18.025 30.975Z" fill="#10DC0B"/>
</svg>
