<svg width="46" height="46" viewBox="0 0 46 46" fill="none" xmlns="http://www.w3.org/2000/svg">
<path d="M4.16871 33.4848H17.25C17.4656 33.4848 17.6632 33.377 17.78 33.1973C17.8968 33.0176 17.9148 32.793 17.816 32.5953L16.0191 28.732C15.9203 28.5074 15.6957 28.3727 15.4531 28.3727H14.5726L12.0121 16.1359C12.9285 15.7496 13.6382 14.977 13.9347 14.0336L19.2984 12.5961H20.6101V29.9539H19.9183C19.5679 29.9539 19.2894 30.2324 19.2894 30.5828V36.4855H18.3281C18.0586 36.4855 17.816 36.6562 17.7351 36.9168L15.9382 42.2176C15.8753 42.4062 15.9023 42.6219 16.0191 42.7836C16.1359 42.9453 16.3246 43.0441 16.5312 43.0441H29.6214C29.8281 43.0441 30.0168 42.9453 30.1336 42.7836C30.2503 42.6219 30.2863 42.4062 30.2144 42.2176L28.4175 36.9168C28.3277 36.6652 28.0941 36.4855 27.8246 36.4855H26.8632V30.5828C26.8632 30.2324 26.5847 29.9539 26.2343 29.9539H25.5425V12.5781H27.2046C27.555 12.5781 27.8335 12.2996 27.8335 11.9492V10.2871L33.1613 8.85859C33.4847 9.15507 33.8621 9.38867 34.2753 9.5414L32.2359 21.7242C32.1371 21.7781 32.0382 21.832 31.9394 21.8859C30.3851 22.7844 29.2531 24.2219 28.732 25.9289C28.5343 26.5848 28.4355 27.2676 28.4355 27.9594C28.4355 28.0941 28.4355 28.2199 28.4445 28.3367C28.5793 30.9691 30.1695 33.2781 32.5773 34.3562C33.4847 34.7605 34.4461 34.9672 35.4433 34.9672C36.4406 34.9672 37.4109 34.7605 38.3093 34.3562C40.825 33.2242 42.4511 30.7176 42.4511 27.9594C42.4511 25.7133 41.364 23.593 39.5492 22.2723C39.2617 22.0656 38.9652 21.8859 38.6597 21.7242L36.6203 9.53242C37.7164 9.12812 38.5429 8.17578 38.7675 7.01679C38.7675 7.00781 38.7765 6.98984 38.7765 6.98086C38.8664 6.47773 38.8484 5.97461 38.7226 5.48047C38.5878 4.98632 38.3543 4.53711 38.0218 4.15078C37.1773 3.17148 35.8296 2.74921 34.5718 3.08164C33.4578 3.37812 32.5683 4.24062 32.2269 5.32773L26.8632 6.76523H25.5515V5.72304C25.5515 4.35742 24.4464 3.25234 23.0808 3.25234C21.7152 3.25234 20.6101 4.35742 20.6101 5.72304V6.7832H18.948C18.5976 6.7832 18.3191 7.06172 18.3191 7.41211V9.07422L12.9914 10.5027C12.1468 9.73008 10.9519 9.43359 9.82886 9.73008C8.58003 10.0625 7.61871 11.1047 7.37613 12.3715C7.2773 12.8746 7.30425 13.3777 7.43003 13.8719C7.5648 14.366 7.79839 14.8152 8.13082 15.2016C8.47222 15.6059 8.91246 15.9203 9.4066 16.1269L6.84605 28.3637H5.96558C5.723 28.3637 5.49839 28.5074 5.39957 28.723L3.60269 32.5863C3.51285 32.784 3.53082 33.0086 3.63863 33.1883C3.75543 33.368 3.95308 33.4848 4.16871 33.4848ZM28.75 41.7594H17.4117L18.7863 37.7164H19.9183H26.2343H27.3664L28.75 41.7594ZM25.6144 36.4586H20.5562V31.1848H21.248H24.9316H25.6234V36.4586H25.6144ZM24.2937 29.9359H21.8679V12.5781H24.2937V29.9359ZM27.8425 7.82539L32.0832 6.69336C32.1011 6.88203 32.1371 7.06171 32.182 7.25039C32.2269 7.43007 32.2988 7.60976 32.3707 7.78047L27.8425 8.98437V7.82539ZM37.3031 21.1941C37.1054 21.1402 36.9078 21.0953 36.7101 21.0594C35.8656 20.9066 34.9492 20.9156 34.1136 21.0773C33.9429 21.1133 33.7812 21.1492 33.6195 21.1941L35.4703 10.1703L37.3031 21.1941ZM38.8214 23.2965C40.3128 24.3746 41.2113 26.1176 41.2113 27.9594C41.2113 30.2234 39.8726 32.2809 37.8152 33.2062C37.0785 33.5387 36.2878 33.7094 35.4613 33.7094C34.6437 33.7094 33.8441 33.5387 33.1074 33.2062C31.1308 32.3168 29.8281 30.4211 29.7203 28.2648C29.7113 28.166 29.7113 28.0672 29.7113 27.9594C29.7113 27.3934 29.7921 26.8273 29.9539 26.2973C30.3761 24.8957 31.3105 23.7187 32.5863 22.982C32.748 22.8922 32.9187 22.8023 33.0804 22.7305C33.4847 22.5418 33.916 22.407 34.3562 22.3262C34.7156 22.2543 35.0839 22.2184 35.4613 22.2184C35.8117 22.2184 36.1531 22.2453 36.4855 22.3082C36.9527 22.3891 37.4109 22.5328 37.8421 22.7305C38.1836 22.8832 38.507 23.0719 38.8214 23.2965ZM34.9043 4.3125C35.0839 4.26757 35.2636 4.24062 35.4523 4.24062C36.0632 4.24062 36.6652 4.51015 37.0695 4.98632C37.2761 5.2289 37.4199 5.50742 37.5097 5.82187C37.5906 6.12734 37.6086 6.43281 37.5546 6.73828C37.5546 6.74726 37.5546 6.75625 37.5457 6.76523C37.3929 7.56484 36.791 8.2207 36.0093 8.42734C35.9464 8.44531 35.8836 8.45429 35.8117 8.47226C35.5781 8.5082 35.3445 8.5082 35.1109 8.47226C34.6168 8.3914 34.1765 8.13984 33.8441 7.75351C33.6375 7.51093 33.4847 7.23242 33.4039 6.91797C33.323 6.60351 33.305 6.28906 33.3679 5.97461C33.5117 5.175 34.1136 4.51914 34.9043 4.3125ZM21.8679 5.72304C21.8679 5.0582 22.416 4.51015 23.0808 4.51015C23.7457 4.51015 24.2937 5.0582 24.2937 5.72304V6.7832H21.8679V5.72304V5.72304ZM19.5769 8.04101H21.239H24.9226H26.5847V9.80195V11.3203H24.9226H21.239H19.5769V9.55937V8.04101V8.04101ZM18.3191 10.377V11.5359L14.0785 12.668C14.0695 12.6141 14.0695 12.5602 14.0605 12.5062C14.0605 12.4883 14.0515 12.4703 14.0515 12.4613C14.0425 12.4164 14.0336 12.3805 14.0246 12.3355C14.0246 12.3176 14.0156 12.2996 14.0156 12.2816C14.0066 12.2277 13.9886 12.1738 13.9796 12.1109C13.9617 12.057 13.9437 12.0031 13.9347 11.9492C13.9257 11.9312 13.9257 11.9133 13.9168 11.9043C13.8988 11.8684 13.8898 11.8234 13.8718 11.7875C13.8628 11.7695 13.8628 11.7605 13.8539 11.7426C13.8359 11.6887 13.8089 11.6437 13.791 11.5898L18.3191 10.377ZM9.09214 14.384C8.8855 14.1414 8.74175 13.8629 8.65191 13.5484C8.57105 13.234 8.55308 12.9195 8.61597 12.6051C8.76871 11.8055 9.37066 11.1496 10.1523 10.943C10.332 10.898 10.5117 10.8711 10.7003 10.8711C11.3113 10.8711 11.9132 11.1406 12.3175 11.6168L12.3265 11.6258C12.3445 11.6437 12.3535 11.6617 12.3625 11.6707C12.3714 11.6887 12.3894 11.6977 12.3984 11.7156C12.4074 11.7336 12.4253 11.7516 12.4343 11.7695C12.4433 11.7875 12.4523 11.7965 12.4613 11.8145C12.4703 11.8324 12.4882 11.8504 12.4972 11.8684C12.5062 11.8863 12.5152 11.8953 12.5242 11.9133C12.5332 11.9312 12.5421 11.9492 12.5511 11.9672C12.5601 11.9852 12.5691 11.9941 12.5781 12.0121C12.5871 12.0301 12.5961 12.048 12.605 12.075C12.614 12.093 12.623 12.1019 12.623 12.1199C12.632 12.1379 12.641 12.1648 12.65 12.1828C12.6589 12.2008 12.6589 12.2098 12.6679 12.2277C12.6769 12.2547 12.6859 12.2816 12.6949 12.2996C12.6949 12.3086 12.7039 12.3266 12.7039 12.3355C12.7128 12.3715 12.7308 12.4074 12.7398 12.4523C12.7488 12.4883 12.7578 12.5332 12.7668 12.5691C12.7668 12.5871 12.7757 12.5961 12.7757 12.6141C12.7847 12.641 12.7847 12.659 12.7847 12.6859C12.7847 12.7039 12.7847 12.7219 12.7937 12.7398C12.7937 12.7578 12.8027 12.7848 12.8027 12.8027C12.8027 12.8207 12.8027 12.8387 12.8027 12.8566C12.8027 12.8746 12.8027 12.9016 12.8027 12.9195C12.8027 12.9375 12.8027 12.9555 12.8027 12.9734C12.8027 12.9914 12.8027 13.0094 12.8027 13.0363C12.8027 13.0543 12.8027 13.0723 12.8027 13.0902C12.8027 13.1082 12.8027 13.1262 12.8027 13.1531C12.8027 13.1711 12.8027 13.1891 12.7937 13.207C12.7937 13.225 12.7937 13.252 12.7847 13.2699C12.7847 13.2879 12.7757 13.3059 12.7757 13.3238C12.7757 13.3418 12.7668 13.3598 12.7668 13.3867C12.7668 13.3957 12.7668 13.3957 12.7668 13.4047C12.614 14.2043 12.0121 14.8602 11.2214 15.0668C11.1855 15.0758 11.1496 15.0848 11.1136 15.0937C10.8261 15.1566 10.5296 15.1566 10.2421 15.0937C9.81988 14.9859 9.39761 14.7344 9.09214 14.384ZM10.6464 16.3785C10.6644 16.3785 10.6914 16.3785 10.7093 16.3785C10.7363 16.3785 10.7543 16.3785 10.7812 16.3785L13.2878 28.3547H8.13082L10.6464 16.3785ZM6.36089 29.6215H7.34918H14.0515H15.0398L16.2527 32.227H5.15699L6.36089 29.6215Z" fill="#10DC0B"/>
<path d="M35.4524 23.4762C33.8981 23.4762 32.4696 24.2668 31.652 25.5875C31.6431 25.5965 31.6341 25.6144 31.6251 25.6234C31.5622 25.7223 31.4993 25.8301 31.4454 25.9379C31.131 26.5668 30.9692 27.2406 30.9692 27.9504C30.9692 28.0852 30.9782 28.2109 30.9872 28.3187C31.104 29.7293 31.8946 31.023 33.1075 31.7687C33.8083 32.2 34.6169 32.4336 35.4524 32.4336C37.9231 32.4336 39.9267 30.4211 39.9267 27.9594C39.9267 27.3035 39.7919 26.6746 39.5134 26.0816C39.4415 25.9199 39.3606 25.7762 39.2708 25.6324C39.2618 25.6144 39.2528 25.6055 39.2438 25.5965C38.6419 24.6352 37.7165 23.9434 36.6204 23.6379C36.2521 23.5301 35.8567 23.4762 35.4524 23.4762ZM38.1837 26.2523C38.1837 26.2613 38.1927 26.2703 38.2017 26.2793C38.2646 26.3781 38.3274 26.4949 38.3813 26.6117C38.579 27.034 38.6778 27.4832 38.6778 27.9594C38.6778 29.7383 37.2313 31.1758 35.4614 31.1758C34.8685 31.1758 34.2845 31.0141 33.7813 30.6996C32.9099 30.1605 32.3349 29.2352 32.254 28.2109C32.245 28.1301 32.245 28.0492 32.245 27.9504C32.245 27.4383 32.3618 26.9531 32.5864 26.5039C32.6313 26.423 32.6673 26.3422 32.7212 26.2703C32.7302 26.2613 32.7302 26.2523 32.7392 26.2434C33.3321 25.291 34.3563 24.734 35.4704 24.734C35.7579 24.734 36.0454 24.7699 36.3239 24.8508C37.0876 25.0664 37.7524 25.5605 38.1837 26.2523Z" fill="#10DC0B"/>
<path d="M35.8028 25.3898C35.8028 25.2281 35.677 25.1113 35.5153 25.1113C35.3536 25.1113 35.2278 25.2371 35.2278 25.3898V25.5246C34.9673 25.5426 34.7337 25.6055 34.536 25.7043C34.2935 25.8301 34.0958 26.0008 33.979 26.2164C33.8892 26.3781 33.8442 26.5668 33.8442 26.7734C33.8442 27.0789 33.9161 27.3125 34.0688 27.5102C34.2935 27.7977 34.6798 27.9863 35.2548 28.1301V29.4238C34.8954 29.3609 34.5899 29.2082 34.2845 28.9836C34.2216 28.9387 34.1497 28.9117 34.0688 28.9117C33.8622 28.9117 33.7095 29.0734 33.7095 29.2711C33.7095 29.4059 33.7724 29.5137 33.8892 29.5855C34.2935 29.8641 34.7427 30.0437 35.2368 30.0977V30.5019C35.2368 30.6637 35.3716 30.7805 35.5243 30.7805C35.686 30.7805 35.8118 30.6547 35.8118 30.5019V30.1066C36.6474 30.0258 37.2134 29.5496 37.2134 28.8219C37.2134 28.6062 37.1685 28.4176 37.0876 28.2559C36.8989 27.8875 36.4767 27.6449 35.7849 27.4742V26.2164C36.0095 26.2703 36.2341 26.3691 36.4587 26.5039C36.5216 26.5398 36.5935 26.5668 36.6563 26.5668C36.863 26.5668 37.0247 26.4051 37.0247 26.2074C37.0247 26.0457 36.9349 25.9559 36.827 25.893C36.5216 25.7043 36.1981 25.5785 35.8118 25.5336V25.3898H35.8028ZM35.2548 27.3574C35.156 27.3215 35.0661 27.2945 34.9942 27.2586C34.7067 27.1238 34.6259 26.9711 34.6259 26.7465C34.6259 26.459 34.8325 26.2344 35.2548 26.1984V27.3574ZM35.8028 28.2738C36.279 28.4266 36.4228 28.6062 36.4228 28.8848C36.4228 29.1992 36.1892 29.4059 35.7759 29.4598V28.2648C35.7849 28.2738 35.7938 28.2738 35.8028 28.2738Z" fill="#10DC0B"/>
</svg>
