<svg width="42" height="42" viewBox="0 0 42 42" fill="none" xmlns="http://www.w3.org/2000/svg">
<path d="M40.075 1.75H31.5C31.5 0.7 30.8 0 29.75 0C28.7 0 28 0.7 28 1.75H14C14 0.7 13.3 0 12.25 0C11.2 0 10.5 0.7 10.5 1.75H1.925C0.875 1.75 0 2.625 0 3.675V40.075C0 41.125 0.875 42 1.925 42H40.075C41.125 42 42 41.125 42 40.075V3.675C42 2.625 41.125 1.75 40.075 1.75ZM38.5 38.5H3.5V14H38.5V38.5ZM38.5 12.25H3.5V5.25H10.5V7C10.5 8.05 11.2 8.75 12.25 8.75C13.3 8.75 14 8.05 14 7V5.25H28V7C28 8.05 28.7 8.75 29.75 8.75C30.8 8.75 31.5 8.05 31.5 7V5.25H38.5V12.25Z" fill="#E4D86A"/>
<path d="M16.975 32.725L20.475 29.225C21.175 29.575 21.875 29.75 22.75 29.75C25.725 29.75 28 27.475 28 24.5C28 21.525 25.725 19.25 22.75 19.25C19.775 19.25 17.5 21.525 17.5 24.5C17.5 25.375 17.675 26.075 18.025 26.775L14.525 30.275C13.825 30.975 13.825 32.025 14.525 32.725C15.225 33.425 16.275 33.425 16.975 32.725ZM22.75 22.75C23.8 22.75 24.5 23.45 24.5 24.5C24.5 25.55 23.8 26.25 22.75 26.25C21.7 26.25 21 25.55 21 24.5C21 23.45 21.7 22.75 22.75 22.75Z" fill="#E4D86A"/>
</svg>
