<svg width="42" height="42" viewBox="0 0 42 42" fill="none" xmlns="http://www.w3.org/2000/svg">
<path d="M40.075 1.75H31.5C31.5 0.7 30.8 0 29.75 0C28.7 0 28 0.7 28 1.75H14C14 0.7 13.3 0 12.25 0C11.2 0 10.5 0.7 10.5 1.75H1.925C0.875 1.75 0 2.625 0 3.675V40.075C0 41.125 0.875 42 1.925 42H40.075C41.125 42 42 41.125 42 40.075V3.675C42 2.625 41.125 1.75 40.075 1.75ZM38.5 38.5H3.5V14H38.5V38.5ZM38.5 12.25H3.5V5.25H10.5V7C10.5 8.05 11.2 8.75 12.25 8.75C13.3 8.75 14 8.05 14 7V5.25H28V7C28 8.05 28.7 8.75 29.75 8.75C30.8 8.75 31.5 8.05 31.5 7V5.25H38.5V12.25Z" fill="#FD3D01"/>
<path d="M14 17.5H7V24.5H14V17.5ZM12.25 22.75H8.75V19.25H12.25V22.75Z" fill="#FD3D01"/>
<path d="M24.5 17.5H17.5V24.5H24.5V17.5ZM22.75 22.75H19.25V19.25H22.75V22.75Z" fill="#FD3D01"/>
<path d="M35 17.5H28V24.5H35V17.5ZM33.25 22.75H29.75V19.25H33.25V22.75Z" fill="#FD3D01"/>
<path d="M14 28H7V35H14V28ZM12.25 33.25H8.75V29.75H12.25V33.25Z" fill="#FD3D01"/>
<path d="M24.5 28H17.5V35H24.5V28ZM22.75 33.25H19.25V29.75H22.75V33.25Z" fill="#FD3D01"/>
<path d="M35 28H28V35H35V28ZM33.25 33.25H29.75V29.75H33.25V33.25Z" fill="#FD3D01"/>
</svg>
